# xmcd
# Copyright (C) 1995-1998 Ti Kan
#
# Track frame offsets:
#       150
#       15065
#       45685
#
# Disc length: 4793 seconds
#
# Revision: 0
# Processed by: cddbd v1.5.2PL0 Copyright (c) Steve Scherf et al.
# Submitted via: CD-Transfer v1.0
#
DISCID=1312b703
DTITLE=Elegoviæ, Mila - 
DYEAR=13
DGENRE=
TTITLE0=Noina Arka
TTITLE1=Koka
TTITLE2=Data Track
EXTD=
EXTT0=
EXTT1=
EXTT2=
PLAYORDER=
